<?xml version="1.0" encoding="UTF-8"?>
<svg xmlns="http://www.w3.org/2000/svg" xmlns:xlink="http://www.w3.org/1999/xlink" viewBox="0 0 24 24" width="24px" height="24px">
<g id="surface65893095">
<path style=" stroke:none;fill-rule:nonzero;fill:rgb(100%,100%,100%);fill-opacity:1;" d="M 3.257812 2.605469 C 2.628906 2.605469 2.25 2.625 2.25 2.625 L 2.25 4.921875 C 1.316406 5.09375 0.75 5.25 0.75 5.25 L 0.75 21 C 0.75 21 5.199219 19.675781 10.125 20.558594 L 10.125 21.375 C 10.125 21.375 10.875 21.75 12 21.75 C 13.125 21.75 13.875 21.375 13.875 21.375 L 13.875 20.558594 C 18.800781 19.675781 23.25 21 23.25 21 L 23.25 5.25 C 23.25 5.25 22.683594 5.09375 21.75 4.921875 L 21.75 2.625 C 21.75 2.625 15.675781 2.324219 12 4.175781 C 9.242188 2.785156 5.136719 2.609375 3.257812 2.605469 Z M 3.375 4.125 C 7.898438 4.125 10.203125 4.792969 11.25 5.238281 L 11.25 17.25 L 12.75 16.875 L 12.75 5.238281 C 13.796875 4.792969 16.101562 4.125 20.625 4.125 L 20.625 18 C 13.875 18 12 19.5 12 19.5 C 12 19.5 10.125 18 3.375 18 Z M 3.375 4.125 "/>
</g>
</svg>
