<?xml version="1.0" encoding="UTF-8"?>
<svg xmlns="http://www.w3.org/2000/svg" xmlns:xlink="http://www.w3.org/1999/xlink" width="24px" height="24px" viewBox="0 0 24 24" version="1.1">
<g id="surface1">
<path style=" stroke:none;fill-rule:nonzero;fill:#ffffff;fill-opacity:1;" d="M 19.5 2.25 L 6.75 2.25 C 5.09375 2.25 3.75 3.59375 3.75 5.25 L 3.75 21.75 C 3.75 22.164062 4.085938 22.5 4.5 22.5 L 18 22.5 C 18.414062 22.5 18.75 22.164062 18.75 21.75 C 18.75 21.335938 18.414062 21 18 21 L 5.25 21 C 5.25 20.171875 5.921875 19.5 6.75 19.5 L 19.5 19.5 C 19.914062 19.5 20.25 19.164062 20.25 18.75 L 20.25 3 C 20.25 2.585938 19.914062 2.25 19.5 2.25 Z M 12 3.75 L 17.25 3.75 L 17.25 11.25 L 14.847656 9.449219 C 14.714844 9.351562 14.53125 9.351562 14.398438 9.449219 L 12 11.25 Z M 12 3.75 "/>
</g>
</svg>
