<?xml version="1.0" encoding="UTF-8"?>
<svg xmlns="http://www.w3.org/2000/svg" xmlns:xlink="http://www.w3.org/1999/xlink" viewBox="0 0 24 24" width="24px" height="24px">
<g id="surface66232779">
<path style=" stroke:none;fill-rule:nonzero;fill:rgb(100%,100%,100%);fill-opacity:1;" d="M 6.765625 2.25 C 6.023438 2.25 5.636719 2.625 5.636719 3.375 L 5.636719 10.558594 C 3.722656 10.882812 2.261719 12.59375 2.261719 14.625 L 2.261719 15.375 L 3.761719 15.375 L 3.761719 14.625 C 3.761719 13.394531 4.558594 12.386719 5.636719 12.089844 L 5.636719 18.375 C 5.636719 19.125 6.023438 19.5 6.761719 19.5 L 8.636719 19.5 L 8.636719 22.125 L 10.136719 22.125 L 10.136719 19.5 L 14.261719 19.5 L 14.261719 22.125 L 15.761719 22.125 L 15.761719 19.5 L 17.628906 19.5 C 18.359375 19.5 18.761719 19.125 18.761719 18.375 L 18.761719 12.292969 C 20.675781 11.914062 22.136719 10.246094 22.136719 8.25 L 22.136719 7.5 L 20.636719 7.5 L 20.636719 8.25 C 20.636719 9.421875 19.859375 10.410156 18.761719 10.75 L 18.761719 3.375 C 18.761719 2.625 18.386719 2.25 17.628906 2.25 Z M 8.261719 4.125 L 16.136719 4.125 C 16.511719 4.125 16.886719 4.5 16.886719 4.875 L 16.886719 9 C 16.886719 9.46875 16.640625 9.75 16.144531 9.75 L 8.261719 9.75 C 7.886719 9.75 7.511719 9.375 7.511719 9 L 7.511719 4.875 C 7.511719 4.5 7.886719 4.125 8.261719 4.125 Z M 9.574219 5.625 C 9.265625 5.625 9.011719 5.875 9.011719 6.1875 C 9.011719 6.5 9.265625 6.75 9.574219 6.75 C 9.886719 6.75 10.136719 6.5 10.136719 6.1875 C 10.136719 5.875 9.886719 5.625 9.574219 5.625 Z M 14.824219 5.625 C 14.515625 5.625 14.261719 5.875 14.261719 6.1875 C 14.261719 6.5 14.515625 6.75 14.824219 6.75 C 15.136719 6.75 15.386719 6.5 15.386719 6.1875 C 15.386719 5.875 15.136719 5.625 14.824219 5.625 Z M 11.261719 7.125 C 11.261719 7.746094 11.683594 8.25 12.199219 8.25 C 12.71875 8.25 13.136719 7.746094 13.136719 7.125 Z M 7.511719 11.25 L 13.136719 11.25 L 13.136719 12.375 L 7.511719 12.375 Z M 15.574219 11.25 C 15.886719 11.25 16.136719 11.503906 16.136719 11.8125 C 16.136719 12.121094 15.886719 12.375 15.574219 12.375 C 15.265625 12.375 15.011719 12.121094 15.011719 11.8125 C 15.011719 11.503906 15.265625 11.25 15.574219 11.25 Z M 16.699219 13.125 C 17.011719 13.125 17.261719 13.378906 17.261719 13.6875 C 17.261719 13.996094 17.011719 14.25 16.699219 14.25 C 16.390625 14.25 16.136719 13.996094 16.136719 13.6875 C 16.136719 13.378906 16.390625 13.125 16.699219 13.125 Z M 8.261719 13.5 L 9.386719 13.5 L 9.386719 14.625 L 10.511719 14.625 L 10.511719 15.75 L 9.386719 15.75 L 9.386719 16.875 L 8.261719 16.875 L 8.261719 15.75 L 7.136719 15.75 L 7.136719 14.625 L 8.261719 14.625 Z M 14.824219 15.375 C 15.550781 15.375 16.136719 15.964844 16.136719 16.6875 C 16.136719 17.410156 15.550781 18 14.824219 18 C 14.101562 18 13.511719 17.410156 13.511719 16.6875 C 13.511719 15.964844 14.101562 15.375 14.824219 15.375 Z M 14.824219 15.375 "/>
</g>
</svg>
