<?xml version="1.0" encoding="UTF-8"?>
<svg xmlns="http://www.w3.org/2000/svg" xmlns:xlink="http://www.w3.org/1999/xlink" viewBox="0 0 24 24" width="24px" height="24px">
<g id="surface110934577">
<path style=" stroke:none;fill-rule:nonzero;fill:rgb(100%,100%,100%);fill-opacity:1;" d="M 8.167969 2.625 L 7.207031 5.5 C 5.769531 5.5 5.292969 8.136719 5.292969 9.8125 L 5.292969 10.21875 C 5.265625 10.5 5.25 10.78125 5.25 11.0625 L 5.25 12.691406 C 5.019531 13.035156 4.6875 13.664062 4.6875 14.4375 C 4.6875 15.371094 5.023438 16.113281 5.742188 16.757812 C 6.980469 19.90625 10.6875 21.941406 10.726562 21.960938 L 11.046875 22.125 L 12.953125 22.125 L 13.273438 21.960938 C 13.972656 21.597656 16.960938 19.566406 18.066406 16.777344 C 18.871094 16.121094 19.3125 15.296875 19.3125 14.4375 C 19.3125 13.652344 18.980469 13.007812 18.769531 12.675781 L 18.75 11.0625 C 18.75 10.78125 18.734375 10.5 18.707031 10.21875 L 18.707031 9.8125 C 18.707031 4.542969 15.832031 2.625 8.167969 2.625 Z M 8.167969 7.804688 C 8.167969 7.804688 9.84375 8.285156 12 8.285156 C 14.15625 8.285156 16.3125 7.804688 16.3125 7.804688 C 16.882812 8.375 17.128906 9.613281 17.238281 10.757812 C 17.242188 10.867188 17.25 11 17.25 11.070312 L 17.273438 12.925781 L 17.285156 13.191406 L 17.445312 13.390625 C 17.539062 13.511719 17.8125 13.960938 17.8125 14.4375 C 17.8125 15.042969 17.242188 15.527344 16.996094 15.707031 L 16.808594 15.84375 L 16.730469 16.0625 C 15.871094 18.476562 13.078125 20.371094 12.589844 20.625 L 11.410156 20.625 C 10.746094 20.277344 7.914062 18.398438 7.082031 16.0625 L 7.011719 15.863281 L 6.847656 15.730469 C 6.367188 15.339844 6.1875 14.988281 6.1875 14.4375 C 6.1875 13.894531 6.5625 13.433594 6.578125 13.414062 L 6.75 13.207031 L 6.75 11.503906 C 6.867188 10.261719 7.199219 8.632812 8.167969 7.804688 Z M 8.167969 7.804688 "/>
</g>
</svg>
