<?xml version="1.0" encoding="UTF-8"?>
<svg xmlns="http://www.w3.org/2000/svg" xmlns:xlink="http://www.w3.org/1999/xlink" viewBox="0 0 24 24" width="24px" height="24px">
<g id="surface71708633">
<path style=" stroke:none;fill-rule:nonzero;fill:rgb(100%,100%,100%);fill-opacity:1;" d="M 20.304688 4.070312 C 22.710938 6.476562 22.710938 10.382812 20.304688 12.789062 C 17.898438 15.195312 13.992188 15.195312 11.585938 12.789062 C 9.179688 10.382812 9.179688 6.476562 11.585938 4.070312 C 13.992188 1.664062 17.898438 1.664062 20.304688 4.070312 Z M 16.011719 7.976562 C 16.613281 8.578125 17.589844 8.578125 18.191406 7.976562 C 18.792969 7.375 18.792969 6.398438 18.191406 5.796875 C 17.589844 5.195312 16.613281 5.195312 16.011719 5.796875 C 15.410156 6.398438 15.410156 7.375 16.011719 7.976562 Z M 11.027344 13.351562 C 11.023438 13.347656 11.019531 13.339844 11.011719 13.335938 L 4.125 19.5 L 3.84375 19.21875 L 10.332031 12.550781 C 9.960938 12.074219 9.652344 11.566406 9.398438 11.039062 L 2.625 18.375 L 2.25 20.25 L 3.375 21.375 L 4.875 21.375 L 6 20.25 L 6.75 20.25 L 7.5 19.5 L 7.5 18.75 L 8.25 18 L 9.375 18.375 L 10.125 17.625 L 9.75 16.5 L 10.5 15.75 L 12 16.125 L 13.210938 14.914062 C 12.417969 14.523438 11.675781 14 11.027344 13.351562 Z M 11.027344 13.351562 "/>
</g>
</svg>
