<?xml version="1.0" encoding="UTF-8"?>
<svg xmlns="http://www.w3.org/2000/svg" xmlns:xlink="http://www.w3.org/1999/xlink" viewBox="0 0 24 24" width="24px" height="24px">
<g id="surface65963559">
<path style=" stroke:none;fill-rule:nonzero;fill:rgb(100%,100%,100%);fill-opacity:1;" d="M 4.5 3 C 3.671875 3 3 3.671875 3 4.5 L 3 16.5 C 3 17.328125 3.671875 18 4.5 18 L 16.5 18 C 17.328125 18 18 17.328125 18 16.5 L 18 4.5 C 18 3.671875 17.328125 3 16.5 3 Z M 19.125 6 L 19.125 17.25 C 19.125 18.285156 18.285156 19.125 17.25 19.125 L 6 19.125 L 6 19.5 C 6 20.328125 6.671875 21 7.5 21 L 19.5 21 C 20.328125 21 21 20.328125 21 19.5 L 21 7.5 C 21 6.671875 20.328125 6 19.5 6 Z M 19.125 6 "/>
</g>
</svg>
