<?xml version="1.0" standalone="no"?>
<!DOCTYPE svg PUBLIC "-//W3C//DTD SVG 20010904//EN"
 "http://www.w3.org/TR/2001/REC-SVG-20010904/DTD/svg10.dtd">
<svg version="1.0" xmlns="http://www.w3.org/2000/svg"
 width="1279.000000pt" height="1280.000000pt" viewBox="0 0 1279.000000 1280.000000"
 preserveAspectRatio="xMidYMid meet">
<metadata>
Created by potrace 1.15, written by Peter Selinger 2001-2017
</metadata>
<g transform="translate(0.000000,1280.000000) scale(0.100000,-0.100000)"
fill="#000000" stroke="none">
<path d="M1585 12363 c-137 -7 -314 -26 -368 -39 -166 -42 -349 -146 -472
-269 -124 -124 -227 -306 -270 -475 -8 -36 -20 -66 -25 -68 -6 -2 -10 -83 -10
-198 0 -108 -3 -193 -8 -191 -4 3 -7 -2123 -7 -4723 0 -2600 3 -4726 7 -4723
5 2 8 -38 8 -90 0 -213 27 -374 87 -517 101 -242 301 -442 543 -543 109 -45
188 -64 325 -77 152 -14 9848 -14 10000 0 137 13 216 32 325 77 242 101 442
301 543 543 60 143 87 304 87 517 0 52 3 92 8 90 4 -3 7 2123 7 4723 0 2600
-3 4726 -7 4723 -5 -2 -8 38 -8 90 0 213 -27 374 -87 517 -101 242 -302 442
-543 543 -116 48 -186 64 -337 77 -90 8 -1559 12 -4938 13 -2646 1 -4832 1
-4860 0z"/>
<path d="M422 11200 c0 -14 2 -19 5 -12 2 6 2 18 0 25 -3 6 -5 1 -5 -13z"/>
</g>
</svg>
